<mxfile host="Electron" modified="2023-04-14T22:24:36.323Z" agent="Mozilla/5.0 (Windows NT 10.0; Win64; x64) AppleWebKit/537.36 (KHTML, like Gecko) draw.io/21.1.2 Chrome/106.0.5249.199 Electron/21.4.3 Safari/537.36" etag="wBaw4i7RjHvyOAW_yn5B" version="21.1.2" type="device">
  <diagram name="Olimpiadas de Invierno" id="M3qVnN_scl08L_aMYJhy">
    <mxGraphModel dx="1152" dy="701" grid="0" gridSize="10" guides="1" tooltips="1" connect="1" arrows="1" fold="1" page="1" pageScale="1" pageWidth="4681" pageHeight="3300" math="0" shadow="0">
      <root>
        <mxCell id="0" />
        <mxCell id="1" parent="0" />
        <mxCell id="zbq84CaO1FpFERPsgIWV-2" value="Modelo Entidad-Relacion OLIMPIADAS DE INVIERNO - EVA1_PARCIAL" style="swimlane;" parent="1" vertex="1">
          <mxGeometry x="531" y="396" width="1368" height="708" as="geometry" />
        </mxCell>
        <mxCell id="zbq84CaO1FpFERPsgIWV-16" value="PARTICIPANTE" style="shape=table;startSize=30;container=1;collapsible=1;childLayout=tableLayout;fixedRows=1;rowLines=0;fontStyle=1;align=center;resizeLast=1;html=1;" parent="zbq84CaO1FpFERPsgIWV-2" vertex="1">
          <mxGeometry x="202" y="125" width="180" height="150" as="geometry" />
        </mxCell>
        <mxCell id="zbq84CaO1FpFERPsgIWV-17" value="" style="shape=tableRow;horizontal=0;startSize=0;swimlaneHead=0;swimlaneBody=0;fillColor=none;collapsible=0;dropTarget=0;points=[[0,0.5],[1,0.5]];portConstraint=eastwest;top=0;left=0;right=0;bottom=1;" parent="zbq84CaO1FpFERPsgIWV-16" vertex="1">
          <mxGeometry y="30" width="180" height="30" as="geometry" />
        </mxCell>
        <mxCell id="zbq84CaO1FpFERPsgIWV-18" value="PK" style="shape=partialRectangle;connectable=0;fillColor=none;top=0;left=0;bottom=0;right=0;fontStyle=1;overflow=hidden;whiteSpace=wrap;html=1;" parent="zbq84CaO1FpFERPsgIWV-17" vertex="1">
          <mxGeometry width="30" height="30" as="geometry">
            <mxRectangle width="30" height="30" as="alternateBounds" />
          </mxGeometry>
        </mxCell>
        <mxCell id="zbq84CaO1FpFERPsgIWV-19" value="codigo_participacion" style="shape=partialRectangle;connectable=0;fillColor=none;top=0;left=0;bottom=0;right=0;align=left;spacingLeft=6;fontStyle=5;overflow=hidden;whiteSpace=wrap;html=1;" parent="zbq84CaO1FpFERPsgIWV-17" vertex="1">
          <mxGeometry x="30" width="150" height="30" as="geometry">
            <mxRectangle width="150" height="30" as="alternateBounds" />
          </mxGeometry>
        </mxCell>
        <mxCell id="zbq84CaO1FpFERPsgIWV-20" value="" style="shape=tableRow;horizontal=0;startSize=0;swimlaneHead=0;swimlaneBody=0;fillColor=none;collapsible=0;dropTarget=0;points=[[0,0.5],[1,0.5]];portConstraint=eastwest;top=0;left=0;right=0;bottom=0;" parent="zbq84CaO1FpFERPsgIWV-16" vertex="1">
          <mxGeometry y="60" width="180" height="30" as="geometry" />
        </mxCell>
        <mxCell id="zbq84CaO1FpFERPsgIWV-21" value="" style="shape=partialRectangle;connectable=0;fillColor=none;top=0;left=0;bottom=0;right=0;editable=1;overflow=hidden;whiteSpace=wrap;html=1;" parent="zbq84CaO1FpFERPsgIWV-20" vertex="1">
          <mxGeometry width="30" height="30" as="geometry">
            <mxRectangle width="30" height="30" as="alternateBounds" />
          </mxGeometry>
        </mxCell>
        <mxCell id="zbq84CaO1FpFERPsgIWV-22" value="fecha_participacion" style="shape=partialRectangle;connectable=0;fillColor=none;top=0;left=0;bottom=0;right=0;align=left;spacingLeft=6;overflow=hidden;whiteSpace=wrap;html=1;" parent="zbq84CaO1FpFERPsgIWV-20" vertex="1">
          <mxGeometry x="30" width="150" height="30" as="geometry">
            <mxRectangle width="150" height="30" as="alternateBounds" />
          </mxGeometry>
        </mxCell>
        <mxCell id="Uq6EE7pWzw_fuwq8VIU6-1" value="" style="shape=tableRow;horizontal=0;startSize=0;swimlaneHead=0;swimlaneBody=0;fillColor=none;collapsible=0;dropTarget=0;points=[[0,0.5],[1,0.5]];portConstraint=eastwest;top=0;left=0;right=0;bottom=0;" vertex="1" parent="zbq84CaO1FpFERPsgIWV-16">
          <mxGeometry y="90" width="180" height="30" as="geometry" />
        </mxCell>
        <mxCell id="Uq6EE7pWzw_fuwq8VIU6-2" value="" style="shape=partialRectangle;connectable=0;fillColor=none;top=0;left=0;bottom=0;right=0;editable=1;overflow=hidden;whiteSpace=wrap;html=1;" vertex="1" parent="Uq6EE7pWzw_fuwq8VIU6-1">
          <mxGeometry width="30" height="30" as="geometry">
            <mxRectangle width="30" height="30" as="alternateBounds" />
          </mxGeometry>
        </mxCell>
        <mxCell id="Uq6EE7pWzw_fuwq8VIU6-3" value="tiempo" style="shape=partialRectangle;connectable=0;fillColor=none;top=0;left=0;bottom=0;right=0;align=left;spacingLeft=6;overflow=hidden;whiteSpace=wrap;html=1;" vertex="1" parent="Uq6EE7pWzw_fuwq8VIU6-1">
          <mxGeometry x="30" width="150" height="30" as="geometry">
            <mxRectangle width="150" height="30" as="alternateBounds" />
          </mxGeometry>
        </mxCell>
        <mxCell id="Uq6EE7pWzw_fuwq8VIU6-4" value="" style="shape=tableRow;horizontal=0;startSize=0;swimlaneHead=0;swimlaneBody=0;fillColor=none;collapsible=0;dropTarget=0;points=[[0,0.5],[1,0.5]];portConstraint=eastwest;top=0;left=0;right=0;bottom=0;" vertex="1" parent="zbq84CaO1FpFERPsgIWV-16">
          <mxGeometry y="120" width="180" height="30" as="geometry" />
        </mxCell>
        <mxCell id="Uq6EE7pWzw_fuwq8VIU6-5" value="" style="shape=partialRectangle;connectable=0;fillColor=none;top=0;left=0;bottom=0;right=0;editable=1;overflow=hidden;whiteSpace=wrap;html=1;" vertex="1" parent="Uq6EE7pWzw_fuwq8VIU6-4">
          <mxGeometry width="30" height="30" as="geometry">
            <mxRectangle width="30" height="30" as="alternateBounds" />
          </mxGeometry>
        </mxCell>
        <mxCell id="Uq6EE7pWzw_fuwq8VIU6-6" value="posicion" style="shape=partialRectangle;connectable=0;fillColor=none;top=0;left=0;bottom=0;right=0;align=left;spacingLeft=6;overflow=hidden;whiteSpace=wrap;html=1;" vertex="1" parent="Uq6EE7pWzw_fuwq8VIU6-4">
          <mxGeometry x="30" width="150" height="30" as="geometry">
            <mxRectangle width="150" height="30" as="alternateBounds" />
          </mxGeometry>
        </mxCell>
        <mxCell id="zbq84CaO1FpFERPsgIWV-32" value="PRUEBA" style="shape=table;startSize=30;container=1;collapsible=1;childLayout=tableLayout;fixedRows=1;rowLines=0;fontStyle=1;align=center;resizeLast=1;html=1;" parent="zbq84CaO1FpFERPsgIWV-2" vertex="1">
          <mxGeometry x="607" y="110" width="155" height="180" as="geometry" />
        </mxCell>
        <mxCell id="zbq84CaO1FpFERPsgIWV-33" value="" style="shape=tableRow;horizontal=0;startSize=0;swimlaneHead=0;swimlaneBody=0;fillColor=none;collapsible=0;dropTarget=0;points=[[0,0.5],[1,0.5]];portConstraint=eastwest;top=0;left=0;right=0;bottom=1;" parent="zbq84CaO1FpFERPsgIWV-32" vertex="1">
          <mxGeometry y="30" width="155" height="30" as="geometry" />
        </mxCell>
        <mxCell id="zbq84CaO1FpFERPsgIWV-34" value="PK" style="shape=partialRectangle;connectable=0;fillColor=none;top=0;left=0;bottom=0;right=0;fontStyle=1;overflow=hidden;whiteSpace=wrap;html=1;" parent="zbq84CaO1FpFERPsgIWV-33" vertex="1">
          <mxGeometry width="30" height="30" as="geometry">
            <mxRectangle width="30" height="30" as="alternateBounds" />
          </mxGeometry>
        </mxCell>
        <mxCell id="zbq84CaO1FpFERPsgIWV-35" value="nombre" style="shape=partialRectangle;connectable=0;fillColor=none;top=0;left=0;bottom=0;right=0;align=left;spacingLeft=6;fontStyle=5;overflow=hidden;whiteSpace=wrap;html=1;" parent="zbq84CaO1FpFERPsgIWV-33" vertex="1">
          <mxGeometry x="30" width="125" height="30" as="geometry">
            <mxRectangle width="125" height="30" as="alternateBounds" />
          </mxGeometry>
        </mxCell>
        <mxCell id="zbq84CaO1FpFERPsgIWV-36" value="" style="shape=tableRow;horizontal=0;startSize=0;swimlaneHead=0;swimlaneBody=0;fillColor=none;collapsible=0;dropTarget=0;points=[[0,0.5],[1,0.5]];portConstraint=eastwest;top=0;left=0;right=0;bottom=0;" parent="zbq84CaO1FpFERPsgIWV-32" vertex="1">
          <mxGeometry y="60" width="155" height="30" as="geometry" />
        </mxCell>
        <mxCell id="zbq84CaO1FpFERPsgIWV-37" value="" style="shape=partialRectangle;connectable=0;fillColor=none;top=0;left=0;bottom=0;right=0;editable=1;overflow=hidden;whiteSpace=wrap;html=1;" parent="zbq84CaO1FpFERPsgIWV-36" vertex="1">
          <mxGeometry width="30" height="30" as="geometry">
            <mxRectangle width="30" height="30" as="alternateBounds" />
          </mxGeometry>
        </mxCell>
        <mxCell id="zbq84CaO1FpFERPsgIWV-38" value="tipo" style="shape=partialRectangle;connectable=0;fillColor=none;top=0;left=0;bottom=0;right=0;align=left;spacingLeft=6;overflow=hidden;whiteSpace=wrap;html=1;" parent="zbq84CaO1FpFERPsgIWV-36" vertex="1">
          <mxGeometry x="30" width="125" height="30" as="geometry">
            <mxRectangle width="125" height="30" as="alternateBounds" />
          </mxGeometry>
        </mxCell>
        <mxCell id="zbq84CaO1FpFERPsgIWV-39" value="" style="shape=tableRow;horizontal=0;startSize=0;swimlaneHead=0;swimlaneBody=0;fillColor=none;collapsible=0;dropTarget=0;points=[[0,0.5],[1,0.5]];portConstraint=eastwest;top=0;left=0;right=0;bottom=0;" parent="zbq84CaO1FpFERPsgIWV-32" vertex="1">
          <mxGeometry y="90" width="155" height="30" as="geometry" />
        </mxCell>
        <mxCell id="zbq84CaO1FpFERPsgIWV-40" value="" style="shape=partialRectangle;connectable=0;fillColor=none;top=0;left=0;bottom=0;right=0;editable=1;overflow=hidden;whiteSpace=wrap;html=1;" parent="zbq84CaO1FpFERPsgIWV-39" vertex="1">
          <mxGeometry width="30" height="30" as="geometry">
            <mxRectangle width="30" height="30" as="alternateBounds" />
          </mxGeometry>
        </mxCell>
        <mxCell id="zbq84CaO1FpFERPsgIWV-41" value="fecha_prevista" style="shape=partialRectangle;connectable=0;fillColor=none;top=0;left=0;bottom=0;right=0;align=left;spacingLeft=6;overflow=hidden;whiteSpace=wrap;html=1;" parent="zbq84CaO1FpFERPsgIWV-39" vertex="1">
          <mxGeometry x="30" width="125" height="30" as="geometry">
            <mxRectangle width="125" height="30" as="alternateBounds" />
          </mxGeometry>
        </mxCell>
        <mxCell id="Uq6EE7pWzw_fuwq8VIU6-7" value="" style="shape=tableRow;horizontal=0;startSize=0;swimlaneHead=0;swimlaneBody=0;fillColor=none;collapsible=0;dropTarget=0;points=[[0,0.5],[1,0.5]];portConstraint=eastwest;top=0;left=0;right=0;bottom=0;" vertex="1" parent="zbq84CaO1FpFERPsgIWV-32">
          <mxGeometry y="120" width="155" height="30" as="geometry" />
        </mxCell>
        <mxCell id="Uq6EE7pWzw_fuwq8VIU6-8" value="" style="shape=partialRectangle;connectable=0;fillColor=none;top=0;left=0;bottom=0;right=0;editable=1;overflow=hidden;whiteSpace=wrap;html=1;" vertex="1" parent="Uq6EE7pWzw_fuwq8VIU6-7">
          <mxGeometry width="30" height="30" as="geometry">
            <mxRectangle width="30" height="30" as="alternateBounds" />
          </mxGeometry>
        </mxCell>
        <mxCell id="Uq6EE7pWzw_fuwq8VIU6-9" value="vencedor" style="shape=partialRectangle;connectable=0;fillColor=none;top=0;left=0;bottom=0;right=0;align=left;spacingLeft=6;overflow=hidden;whiteSpace=wrap;html=1;" vertex="1" parent="Uq6EE7pWzw_fuwq8VIU6-7">
          <mxGeometry x="30" width="125" height="30" as="geometry">
            <mxRectangle width="125" height="30" as="alternateBounds" />
          </mxGeometry>
        </mxCell>
        <mxCell id="Uq6EE7pWzw_fuwq8VIU6-10" value="" style="shape=tableRow;horizontal=0;startSize=0;swimlaneHead=0;swimlaneBody=0;fillColor=none;collapsible=0;dropTarget=0;points=[[0,0.5],[1,0.5]];portConstraint=eastwest;top=0;left=0;right=0;bottom=0;" vertex="1" parent="zbq84CaO1FpFERPsgIWV-32">
          <mxGeometry y="150" width="155" height="30" as="geometry" />
        </mxCell>
        <mxCell id="Uq6EE7pWzw_fuwq8VIU6-11" value="" style="shape=partialRectangle;connectable=0;fillColor=none;top=0;left=0;bottom=0;right=0;editable=1;overflow=hidden;whiteSpace=wrap;html=1;" vertex="1" parent="Uq6EE7pWzw_fuwq8VIU6-10">
          <mxGeometry width="30" height="30" as="geometry">
            <mxRectangle width="30" height="30" as="alternateBounds" />
          </mxGeometry>
        </mxCell>
        <mxCell id="Uq6EE7pWzw_fuwq8VIU6-12" value="tiempo" style="shape=partialRectangle;connectable=0;fillColor=none;top=0;left=0;bottom=0;right=0;align=left;spacingLeft=6;overflow=hidden;whiteSpace=wrap;html=1;" vertex="1" parent="Uq6EE7pWzw_fuwq8VIU6-10">
          <mxGeometry x="30" width="125" height="30" as="geometry">
            <mxRectangle width="125" height="30" as="alternateBounds" />
          </mxGeometry>
        </mxCell>
        <mxCell id="zbq84CaO1FpFERPsgIWV-42" value="ESQUIADOR_INDIVIDUAL" style="shape=table;startSize=30;container=1;collapsible=1;childLayout=tableLayout;fixedRows=1;rowLines=0;fontStyle=1;align=center;resizeLast=1;html=1;" parent="zbq84CaO1FpFERPsgIWV-2" vertex="1">
          <mxGeometry x="336" y="450" width="190" height="150" as="geometry" />
        </mxCell>
        <mxCell id="zbq84CaO1FpFERPsgIWV-43" value="" style="shape=tableRow;horizontal=0;startSize=0;swimlaneHead=0;swimlaneBody=0;fillColor=none;collapsible=0;dropTarget=0;points=[[0,0.5],[1,0.5]];portConstraint=eastwest;top=0;left=0;right=0;bottom=1;" parent="zbq84CaO1FpFERPsgIWV-42" vertex="1">
          <mxGeometry y="30" width="190" height="30" as="geometry" />
        </mxCell>
        <mxCell id="zbq84CaO1FpFERPsgIWV-44" value="PK" style="shape=partialRectangle;connectable=0;fillColor=none;top=0;left=0;bottom=0;right=0;fontStyle=1;overflow=hidden;whiteSpace=wrap;html=1;" parent="zbq84CaO1FpFERPsgIWV-43" vertex="1">
          <mxGeometry width="30" height="30" as="geometry">
            <mxRectangle width="30" height="30" as="alternateBounds" />
          </mxGeometry>
        </mxCell>
        <mxCell id="zbq84CaO1FpFERPsgIWV-45" value="codigo_participacion" style="shape=partialRectangle;connectable=0;fillColor=none;top=0;left=0;bottom=0;right=0;align=left;spacingLeft=6;fontStyle=5;overflow=hidden;whiteSpace=wrap;html=1;" parent="zbq84CaO1FpFERPsgIWV-43" vertex="1">
          <mxGeometry x="30" width="160" height="30" as="geometry">
            <mxRectangle width="160" height="30" as="alternateBounds" />
          </mxGeometry>
        </mxCell>
        <mxCell id="zbq84CaO1FpFERPsgIWV-46" value="" style="shape=tableRow;horizontal=0;startSize=0;swimlaneHead=0;swimlaneBody=0;fillColor=none;collapsible=0;dropTarget=0;points=[[0,0.5],[1,0.5]];portConstraint=eastwest;top=0;left=0;right=0;bottom=0;" parent="zbq84CaO1FpFERPsgIWV-42" vertex="1">
          <mxGeometry y="60" width="190" height="30" as="geometry" />
        </mxCell>
        <mxCell id="zbq84CaO1FpFERPsgIWV-47" value="" style="shape=partialRectangle;connectable=0;fillColor=none;top=0;left=0;bottom=0;right=0;editable=1;overflow=hidden;whiteSpace=wrap;html=1;" parent="zbq84CaO1FpFERPsgIWV-46" vertex="1">
          <mxGeometry width="30" height="30" as="geometry">
            <mxRectangle width="30" height="30" as="alternateBounds" />
          </mxGeometry>
        </mxCell>
        <mxCell id="zbq84CaO1FpFERPsgIWV-48" value="rut" style="shape=partialRectangle;connectable=0;fillColor=none;top=0;left=0;bottom=0;right=0;align=left;spacingLeft=6;overflow=hidden;whiteSpace=wrap;html=1;" parent="zbq84CaO1FpFERPsgIWV-46" vertex="1">
          <mxGeometry x="30" width="160" height="30" as="geometry">
            <mxRectangle width="160" height="30" as="alternateBounds" />
          </mxGeometry>
        </mxCell>
        <mxCell id="zbq84CaO1FpFERPsgIWV-49" value="" style="shape=tableRow;horizontal=0;startSize=0;swimlaneHead=0;swimlaneBody=0;fillColor=none;collapsible=0;dropTarget=0;points=[[0,0.5],[1,0.5]];portConstraint=eastwest;top=0;left=0;right=0;bottom=0;" parent="zbq84CaO1FpFERPsgIWV-42" vertex="1">
          <mxGeometry y="90" width="190" height="30" as="geometry" />
        </mxCell>
        <mxCell id="zbq84CaO1FpFERPsgIWV-50" value="" style="shape=partialRectangle;connectable=0;fillColor=none;top=0;left=0;bottom=0;right=0;editable=1;overflow=hidden;whiteSpace=wrap;html=1;" parent="zbq84CaO1FpFERPsgIWV-49" vertex="1">
          <mxGeometry width="30" height="30" as="geometry">
            <mxRectangle width="30" height="30" as="alternateBounds" />
          </mxGeometry>
        </mxCell>
        <mxCell id="zbq84CaO1FpFERPsgIWV-51" value="nombre" style="shape=partialRectangle;connectable=0;fillColor=none;top=0;left=0;bottom=0;right=0;align=left;spacingLeft=6;overflow=hidden;whiteSpace=wrap;html=1;" parent="zbq84CaO1FpFERPsgIWV-49" vertex="1">
          <mxGeometry x="30" width="160" height="30" as="geometry">
            <mxRectangle width="160" height="30" as="alternateBounds" />
          </mxGeometry>
        </mxCell>
        <mxCell id="zbq84CaO1FpFERPsgIWV-52" value="" style="shape=tableRow;horizontal=0;startSize=0;swimlaneHead=0;swimlaneBody=0;fillColor=none;collapsible=0;dropTarget=0;points=[[0,0.5],[1,0.5]];portConstraint=eastwest;top=0;left=0;right=0;bottom=0;" parent="zbq84CaO1FpFERPsgIWV-42" vertex="1">
          <mxGeometry y="120" width="190" height="30" as="geometry" />
        </mxCell>
        <mxCell id="zbq84CaO1FpFERPsgIWV-53" value="" style="shape=partialRectangle;connectable=0;fillColor=none;top=0;left=0;bottom=0;right=0;editable=1;overflow=hidden;whiteSpace=wrap;html=1;" parent="zbq84CaO1FpFERPsgIWV-52" vertex="1">
          <mxGeometry width="30" height="30" as="geometry">
            <mxRectangle width="30" height="30" as="alternateBounds" />
          </mxGeometry>
        </mxCell>
        <mxCell id="zbq84CaO1FpFERPsgIWV-54" value="edad" style="shape=partialRectangle;connectable=0;fillColor=none;top=0;left=0;bottom=0;right=0;align=left;spacingLeft=6;overflow=hidden;whiteSpace=wrap;html=1;" parent="zbq84CaO1FpFERPsgIWV-52" vertex="1">
          <mxGeometry x="30" width="160" height="30" as="geometry">
            <mxRectangle width="160" height="30" as="alternateBounds" />
          </mxGeometry>
        </mxCell>
        <mxCell id="zbq84CaO1FpFERPsgIWV-61" value="PISTA" style="shape=table;startSize=30;container=1;collapsible=1;childLayout=tableLayout;fixedRows=1;rowLines=0;fontStyle=1;align=center;resizeLast=1;html=1;" parent="zbq84CaO1FpFERPsgIWV-2" vertex="1">
          <mxGeometry x="970" y="140" width="151" height="120" as="geometry" />
        </mxCell>
        <mxCell id="zbq84CaO1FpFERPsgIWV-62" value="" style="shape=tableRow;horizontal=0;startSize=0;swimlaneHead=0;swimlaneBody=0;fillColor=none;collapsible=0;dropTarget=0;points=[[0,0.5],[1,0.5]];portConstraint=eastwest;top=0;left=0;right=0;bottom=1;" parent="zbq84CaO1FpFERPsgIWV-61" vertex="1">
          <mxGeometry y="30" width="151" height="30" as="geometry" />
        </mxCell>
        <mxCell id="zbq84CaO1FpFERPsgIWV-63" value="PK" style="shape=partialRectangle;connectable=0;fillColor=none;top=0;left=0;bottom=0;right=0;fontStyle=1;overflow=hidden;whiteSpace=wrap;html=1;" parent="zbq84CaO1FpFERPsgIWV-62" vertex="1">
          <mxGeometry width="30" height="30" as="geometry">
            <mxRectangle width="30" height="30" as="alternateBounds" />
          </mxGeometry>
        </mxCell>
        <mxCell id="zbq84CaO1FpFERPsgIWV-64" value="numero" style="shape=partialRectangle;connectable=0;fillColor=none;top=0;left=0;bottom=0;right=0;align=left;spacingLeft=6;fontStyle=5;overflow=hidden;whiteSpace=wrap;html=1;" parent="zbq84CaO1FpFERPsgIWV-62" vertex="1">
          <mxGeometry x="30" width="121" height="30" as="geometry">
            <mxRectangle width="121" height="30" as="alternateBounds" />
          </mxGeometry>
        </mxCell>
        <mxCell id="zbq84CaO1FpFERPsgIWV-65" value="" style="shape=tableRow;horizontal=0;startSize=0;swimlaneHead=0;swimlaneBody=0;fillColor=none;collapsible=0;dropTarget=0;points=[[0,0.5],[1,0.5]];portConstraint=eastwest;top=0;left=0;right=0;bottom=0;" parent="zbq84CaO1FpFERPsgIWV-61" vertex="1">
          <mxGeometry y="60" width="151" height="30" as="geometry" />
        </mxCell>
        <mxCell id="zbq84CaO1FpFERPsgIWV-66" value="" style="shape=partialRectangle;connectable=0;fillColor=none;top=0;left=0;bottom=0;right=0;editable=1;overflow=hidden;whiteSpace=wrap;html=1;" parent="zbq84CaO1FpFERPsgIWV-65" vertex="1">
          <mxGeometry width="30" height="30" as="geometry">
            <mxRectangle width="30" height="30" as="alternateBounds" />
          </mxGeometry>
        </mxCell>
        <mxCell id="zbq84CaO1FpFERPsgIWV-67" value="longitud_km" style="shape=partialRectangle;connectable=0;fillColor=none;top=0;left=0;bottom=0;right=0;align=left;spacingLeft=6;overflow=hidden;whiteSpace=wrap;html=1;" parent="zbq84CaO1FpFERPsgIWV-65" vertex="1">
          <mxGeometry x="30" width="121" height="30" as="geometry">
            <mxRectangle width="121" height="30" as="alternateBounds" />
          </mxGeometry>
        </mxCell>
        <mxCell id="zbq84CaO1FpFERPsgIWV-68" value="" style="shape=tableRow;horizontal=0;startSize=0;swimlaneHead=0;swimlaneBody=0;fillColor=none;collapsible=0;dropTarget=0;points=[[0,0.5],[1,0.5]];portConstraint=eastwest;top=0;left=0;right=0;bottom=0;" parent="zbq84CaO1FpFERPsgIWV-61" vertex="1">
          <mxGeometry y="90" width="151" height="30" as="geometry" />
        </mxCell>
        <mxCell id="zbq84CaO1FpFERPsgIWV-69" value="" style="shape=partialRectangle;connectable=0;fillColor=none;top=0;left=0;bottom=0;right=0;editable=1;overflow=hidden;whiteSpace=wrap;html=1;" parent="zbq84CaO1FpFERPsgIWV-68" vertex="1">
          <mxGeometry width="30" height="30" as="geometry">
            <mxRectangle width="30" height="30" as="alternateBounds" />
          </mxGeometry>
        </mxCell>
        <mxCell id="zbq84CaO1FpFERPsgIWV-70" value="grado_dificultad" style="shape=partialRectangle;connectable=0;fillColor=none;top=0;left=0;bottom=0;right=0;align=left;spacingLeft=6;overflow=hidden;whiteSpace=wrap;html=1;" parent="zbq84CaO1FpFERPsgIWV-68" vertex="1">
          <mxGeometry x="30" width="121" height="30" as="geometry">
            <mxRectangle width="121" height="30" as="alternateBounds" />
          </mxGeometry>
        </mxCell>
        <mxCell id="zbq84CaO1FpFERPsgIWV-83" value="FEDERACION" style="shape=table;startSize=30;container=1;collapsible=1;childLayout=tableLayout;fixedRows=1;rowLines=0;fontStyle=1;align=center;resizeLast=1;html=1;" parent="zbq84CaO1FpFERPsgIWV-2" vertex="1">
          <mxGeometry x="746" y="483" width="147" height="90" as="geometry" />
        </mxCell>
        <mxCell id="zbq84CaO1FpFERPsgIWV-84" value="" style="shape=tableRow;horizontal=0;startSize=0;swimlaneHead=0;swimlaneBody=0;fillColor=none;collapsible=0;dropTarget=0;points=[[0,0.5],[1,0.5]];portConstraint=eastwest;top=0;left=0;right=0;bottom=1;" parent="zbq84CaO1FpFERPsgIWV-83" vertex="1">
          <mxGeometry y="30" width="147" height="30" as="geometry" />
        </mxCell>
        <mxCell id="zbq84CaO1FpFERPsgIWV-85" value="PK" style="shape=partialRectangle;connectable=0;fillColor=none;top=0;left=0;bottom=0;right=0;fontStyle=1;overflow=hidden;whiteSpace=wrap;html=1;" parent="zbq84CaO1FpFERPsgIWV-84" vertex="1">
          <mxGeometry width="30" height="30" as="geometry">
            <mxRectangle width="30" height="30" as="alternateBounds" />
          </mxGeometry>
        </mxCell>
        <mxCell id="zbq84CaO1FpFERPsgIWV-86" value="nombre" style="shape=partialRectangle;connectable=0;fillColor=none;top=0;left=0;bottom=0;right=0;align=left;spacingLeft=6;fontStyle=5;overflow=hidden;whiteSpace=wrap;html=1;" parent="zbq84CaO1FpFERPsgIWV-84" vertex="1">
          <mxGeometry x="30" width="117" height="30" as="geometry">
            <mxRectangle width="117" height="30" as="alternateBounds" />
          </mxGeometry>
        </mxCell>
        <mxCell id="zbq84CaO1FpFERPsgIWV-87" value="" style="shape=tableRow;horizontal=0;startSize=0;swimlaneHead=0;swimlaneBody=0;fillColor=none;collapsible=0;dropTarget=0;points=[[0,0.5],[1,0.5]];portConstraint=eastwest;top=0;left=0;right=0;bottom=0;" parent="zbq84CaO1FpFERPsgIWV-83" vertex="1">
          <mxGeometry y="60" width="147" height="30" as="geometry" />
        </mxCell>
        <mxCell id="zbq84CaO1FpFERPsgIWV-88" value="" style="shape=partialRectangle;connectable=0;fillColor=none;top=0;left=0;bottom=0;right=0;editable=1;overflow=hidden;whiteSpace=wrap;html=1;" parent="zbq84CaO1FpFERPsgIWV-87" vertex="1">
          <mxGeometry width="30" height="30" as="geometry">
            <mxRectangle width="30" height="30" as="alternateBounds" />
          </mxGeometry>
        </mxCell>
        <mxCell id="zbq84CaO1FpFERPsgIWV-89" value="numero_federados" style="shape=partialRectangle;connectable=0;fillColor=none;top=0;left=0;bottom=0;right=0;align=left;spacingLeft=6;overflow=hidden;whiteSpace=wrap;html=1;" parent="zbq84CaO1FpFERPsgIWV-87" vertex="1">
          <mxGeometry x="30" width="117" height="30" as="geometry">
            <mxRectangle width="117" height="30" as="alternateBounds" />
          </mxGeometry>
        </mxCell>
        <mxCell id="zbq84CaO1FpFERPsgIWV-99" value="COMPLEJO" style="shape=table;startSize=30;container=1;collapsible=1;childLayout=tableLayout;fixedRows=1;rowLines=0;fontStyle=1;align=center;resizeLast=1;html=1;" parent="zbq84CaO1FpFERPsgIWV-2" vertex="1">
          <mxGeometry x="1121" y="423" width="160" height="210" as="geometry" />
        </mxCell>
        <mxCell id="zbq84CaO1FpFERPsgIWV-100" value="" style="shape=tableRow;horizontal=0;startSize=0;swimlaneHead=0;swimlaneBody=0;fillColor=none;collapsible=0;dropTarget=0;points=[[0,0.5],[1,0.5]];portConstraint=eastwest;top=0;left=0;right=0;bottom=1;" parent="zbq84CaO1FpFERPsgIWV-99" vertex="1">
          <mxGeometry y="30" width="160" height="30" as="geometry" />
        </mxCell>
        <mxCell id="zbq84CaO1FpFERPsgIWV-101" value="PK" style="shape=partialRectangle;connectable=0;fillColor=none;top=0;left=0;bottom=0;right=0;fontStyle=1;overflow=hidden;whiteSpace=wrap;html=1;" parent="zbq84CaO1FpFERPsgIWV-100" vertex="1">
          <mxGeometry width="30" height="30" as="geometry">
            <mxRectangle width="30" height="30" as="alternateBounds" />
          </mxGeometry>
        </mxCell>
        <mxCell id="zbq84CaO1FpFERPsgIWV-102" value="codigo" style="shape=partialRectangle;connectable=0;fillColor=none;top=0;left=0;bottom=0;right=0;align=left;spacingLeft=6;fontStyle=5;overflow=hidden;whiteSpace=wrap;html=1;" parent="zbq84CaO1FpFERPsgIWV-100" vertex="1">
          <mxGeometry x="30" width="130" height="30" as="geometry">
            <mxRectangle width="130" height="30" as="alternateBounds" />
          </mxGeometry>
        </mxCell>
        <mxCell id="zbq84CaO1FpFERPsgIWV-103" value="" style="shape=tableRow;horizontal=0;startSize=0;swimlaneHead=0;swimlaneBody=0;fillColor=none;collapsible=0;dropTarget=0;points=[[0,0.5],[1,0.5]];portConstraint=eastwest;top=0;left=0;right=0;bottom=0;" parent="zbq84CaO1FpFERPsgIWV-99" vertex="1">
          <mxGeometry y="60" width="160" height="30" as="geometry" />
        </mxCell>
        <mxCell id="zbq84CaO1FpFERPsgIWV-104" value="" style="shape=partialRectangle;connectable=0;fillColor=none;top=0;left=0;bottom=0;right=0;editable=1;overflow=hidden;whiteSpace=wrap;html=1;" parent="zbq84CaO1FpFERPsgIWV-103" vertex="1">
          <mxGeometry width="30" height="30" as="geometry">
            <mxRectangle width="30" height="30" as="alternateBounds" />
          </mxGeometry>
        </mxCell>
        <mxCell id="zbq84CaO1FpFERPsgIWV-105" value="nombre" style="shape=partialRectangle;connectable=0;fillColor=none;top=0;left=0;bottom=0;right=0;align=left;spacingLeft=6;overflow=hidden;whiteSpace=wrap;html=1;" parent="zbq84CaO1FpFERPsgIWV-103" vertex="1">
          <mxGeometry x="30" width="130" height="30" as="geometry">
            <mxRectangle width="130" height="30" as="alternateBounds" />
          </mxGeometry>
        </mxCell>
        <mxCell id="zbq84CaO1FpFERPsgIWV-106" value="" style="shape=tableRow;horizontal=0;startSize=0;swimlaneHead=0;swimlaneBody=0;fillColor=none;collapsible=0;dropTarget=0;points=[[0,0.5],[1,0.5]];portConstraint=eastwest;top=0;left=0;right=0;bottom=0;" parent="zbq84CaO1FpFERPsgIWV-99" vertex="1">
          <mxGeometry y="90" width="160" height="30" as="geometry" />
        </mxCell>
        <mxCell id="zbq84CaO1FpFERPsgIWV-107" value="" style="shape=partialRectangle;connectable=0;fillColor=none;top=0;left=0;bottom=0;right=0;editable=1;overflow=hidden;whiteSpace=wrap;html=1;" parent="zbq84CaO1FpFERPsgIWV-106" vertex="1">
          <mxGeometry width="30" height="30" as="geometry">
            <mxRectangle width="30" height="30" as="alternateBounds" />
          </mxGeometry>
        </mxCell>
        <mxCell id="zbq84CaO1FpFERPsgIWV-108" value="contacto" style="shape=partialRectangle;connectable=0;fillColor=none;top=0;left=0;bottom=0;right=0;align=left;spacingLeft=6;overflow=hidden;whiteSpace=wrap;html=1;" parent="zbq84CaO1FpFERPsgIWV-106" vertex="1">
          <mxGeometry x="30" width="130" height="30" as="geometry">
            <mxRectangle width="130" height="30" as="alternateBounds" />
          </mxGeometry>
        </mxCell>
        <mxCell id="zbq84CaO1FpFERPsgIWV-109" value="" style="shape=tableRow;horizontal=0;startSize=0;swimlaneHead=0;swimlaneBody=0;fillColor=none;collapsible=0;dropTarget=0;points=[[0,0.5],[1,0.5]];portConstraint=eastwest;top=0;left=0;right=0;bottom=0;" parent="zbq84CaO1FpFERPsgIWV-99" vertex="1">
          <mxGeometry y="120" width="160" height="30" as="geometry" />
        </mxCell>
        <mxCell id="zbq84CaO1FpFERPsgIWV-110" value="" style="shape=partialRectangle;connectable=0;fillColor=none;top=0;left=0;bottom=0;right=0;editable=1;overflow=hidden;whiteSpace=wrap;html=1;" parent="zbq84CaO1FpFERPsgIWV-109" vertex="1">
          <mxGeometry width="30" height="30" as="geometry">
            <mxRectangle width="30" height="30" as="alternateBounds" />
          </mxGeometry>
        </mxCell>
        <mxCell id="zbq84CaO1FpFERPsgIWV-111" value="direccion" style="shape=partialRectangle;connectable=0;fillColor=none;top=0;left=0;bottom=0;right=0;align=left;spacingLeft=6;overflow=hidden;whiteSpace=wrap;html=1;" parent="zbq84CaO1FpFERPsgIWV-109" vertex="1">
          <mxGeometry x="30" width="130" height="30" as="geometry">
            <mxRectangle width="130" height="30" as="alternateBounds" />
          </mxGeometry>
        </mxCell>
        <mxCell id="zbq84CaO1FpFERPsgIWV-112" value="" style="shape=tableRow;horizontal=0;startSize=0;swimlaneHead=0;swimlaneBody=0;fillColor=none;collapsible=0;dropTarget=0;points=[[0,0.5],[1,0.5]];portConstraint=eastwest;top=0;left=0;right=0;bottom=0;" parent="zbq84CaO1FpFERPsgIWV-99" vertex="1">
          <mxGeometry y="150" width="160" height="30" as="geometry" />
        </mxCell>
        <mxCell id="zbq84CaO1FpFERPsgIWV-113" value="" style="shape=partialRectangle;connectable=0;fillColor=none;top=0;left=0;bottom=0;right=0;editable=1;overflow=hidden;whiteSpace=wrap;html=1;" parent="zbq84CaO1FpFERPsgIWV-112" vertex="1">
          <mxGeometry width="30" height="30" as="geometry">
            <mxRectangle width="30" height="30" as="alternateBounds" />
          </mxGeometry>
        </mxCell>
        <mxCell id="zbq84CaO1FpFERPsgIWV-114" value="telefono" style="shape=partialRectangle;connectable=0;fillColor=none;top=0;left=0;bottom=0;right=0;align=left;spacingLeft=6;overflow=hidden;whiteSpace=wrap;html=1;" parent="zbq84CaO1FpFERPsgIWV-112" vertex="1">
          <mxGeometry x="30" width="130" height="30" as="geometry">
            <mxRectangle width="130" height="30" as="alternateBounds" />
          </mxGeometry>
        </mxCell>
        <mxCell id="Uq6EE7pWzw_fuwq8VIU6-28" value="" style="shape=tableRow;horizontal=0;startSize=0;swimlaneHead=0;swimlaneBody=0;fillColor=none;collapsible=0;dropTarget=0;points=[[0,0.5],[1,0.5]];portConstraint=eastwest;top=0;left=0;right=0;bottom=0;" vertex="1" parent="zbq84CaO1FpFERPsgIWV-99">
          <mxGeometry y="180" width="160" height="30" as="geometry" />
        </mxCell>
        <mxCell id="Uq6EE7pWzw_fuwq8VIU6-29" value="" style="shape=partialRectangle;connectable=0;fillColor=none;top=0;left=0;bottom=0;right=0;editable=1;overflow=hidden;whiteSpace=wrap;html=1;" vertex="1" parent="Uq6EE7pWzw_fuwq8VIU6-28">
          <mxGeometry width="30" height="30" as="geometry">
            <mxRectangle width="30" height="30" as="alternateBounds" />
          </mxGeometry>
        </mxCell>
        <mxCell id="Uq6EE7pWzw_fuwq8VIU6-30" value="total_kilometros" style="shape=partialRectangle;connectable=0;fillColor=none;top=0;left=0;bottom=0;right=0;align=left;spacingLeft=6;overflow=hidden;whiteSpace=wrap;html=1;" vertex="1" parent="Uq6EE7pWzw_fuwq8VIU6-28">
          <mxGeometry x="30" width="130" height="30" as="geometry">
            <mxRectangle width="130" height="30" as="alternateBounds" />
          </mxGeometry>
        </mxCell>
        <mxCell id="Uq6EE7pWzw_fuwq8VIU6-13" value="" style="endArrow=none;html=1;rounded=0;" edge="1" parent="zbq84CaO1FpFERPsgIWV-2" source="zbq84CaO1FpFERPsgIWV-16" target="Uq6EE7pWzw_fuwq8VIU6-14">
          <mxGeometry relative="1" as="geometry">
            <mxPoint x="351" y="406" as="sourcePoint" />
            <mxPoint x="407" y="418" as="targetPoint" />
          </mxGeometry>
        </mxCell>
        <mxCell id="Uq6EE7pWzw_fuwq8VIU6-14" value="participa" style="shape=rhombus;perimeter=rhombusPerimeter;whiteSpace=wrap;html=1;align=center;" vertex="1" parent="zbq84CaO1FpFERPsgIWV-2">
          <mxGeometry x="435" y="170" width="120" height="60" as="geometry" />
        </mxCell>
        <mxCell id="Uq6EE7pWzw_fuwq8VIU6-15" value="" style="endArrow=none;html=1;rounded=0;" edge="1" parent="zbq84CaO1FpFERPsgIWV-2" source="Uq6EE7pWzw_fuwq8VIU6-14" target="zbq84CaO1FpFERPsgIWV-32">
          <mxGeometry relative="1" as="geometry">
            <mxPoint x="467" y="424" as="sourcePoint" />
            <mxPoint x="523" y="436" as="targetPoint" />
          </mxGeometry>
        </mxCell>
        <mxCell id="Uq6EE7pWzw_fuwq8VIU6-16" value="1,n" style="text;html=1;strokeColor=none;fillColor=none;align=center;verticalAlign=middle;whiteSpace=wrap;rounded=0;" vertex="1" parent="zbq84CaO1FpFERPsgIWV-2">
          <mxGeometry x="382" y="177" width="36" height="21" as="geometry" />
        </mxCell>
        <mxCell id="Uq6EE7pWzw_fuwq8VIU6-17" value="1,n" style="text;html=1;strokeColor=none;fillColor=none;align=center;verticalAlign=middle;whiteSpace=wrap;rounded=0;" vertex="1" parent="zbq84CaO1FpFERPsgIWV-2">
          <mxGeometry x="571" y="177" width="36" height="21" as="geometry" />
        </mxCell>
        <mxCell id="Uq6EE7pWzw_fuwq8VIU6-18" value="n,m" style="text;html=1;strokeColor=none;fillColor=none;align=center;verticalAlign=middle;whiteSpace=wrap;rounded=0;" vertex="1" parent="zbq84CaO1FpFERPsgIWV-2">
          <mxGeometry x="477" y="232" width="36" height="21" as="geometry" />
        </mxCell>
        <mxCell id="Uq6EE7pWzw_fuwq8VIU6-19" value="n,m" style="text;html=1;strokeColor=none;fillColor=none;align=center;verticalAlign=middle;whiteSpace=wrap;rounded=0;" vertex="1" parent="zbq84CaO1FpFERPsgIWV-2">
          <mxGeometry x="850" y="232" width="36" height="21" as="geometry" />
        </mxCell>
        <mxCell id="Uq6EE7pWzw_fuwq8VIU6-20" value="se_realiza" style="shape=rhombus;perimeter=rhombusPerimeter;whiteSpace=wrap;html=1;align=center;" vertex="1" parent="zbq84CaO1FpFERPsgIWV-2">
          <mxGeometry x="808" y="170" width="120" height="60" as="geometry" />
        </mxCell>
        <mxCell id="Uq6EE7pWzw_fuwq8VIU6-21" value="" style="endArrow=none;html=1;rounded=0;" edge="1" parent="zbq84CaO1FpFERPsgIWV-2" source="zbq84CaO1FpFERPsgIWV-32" target="Uq6EE7pWzw_fuwq8VIU6-20">
          <mxGeometry relative="1" as="geometry">
            <mxPoint x="826" y="285" as="sourcePoint" />
            <mxPoint x="986" y="285" as="targetPoint" />
          </mxGeometry>
        </mxCell>
        <mxCell id="Uq6EE7pWzw_fuwq8VIU6-22" value="" style="endArrow=none;html=1;rounded=0;" edge="1" parent="zbq84CaO1FpFERPsgIWV-2" source="zbq84CaO1FpFERPsgIWV-61" target="Uq6EE7pWzw_fuwq8VIU6-20">
          <mxGeometry relative="1" as="geometry">
            <mxPoint x="935" y="137" as="sourcePoint" />
            <mxPoint x="1095" y="137" as="targetPoint" />
          </mxGeometry>
        </mxCell>
        <mxCell id="Uq6EE7pWzw_fuwq8VIU6-23" value="1,n" style="text;html=1;strokeColor=none;fillColor=none;align=center;verticalAlign=middle;whiteSpace=wrap;rounded=0;" vertex="1" parent="zbq84CaO1FpFERPsgIWV-2">
          <mxGeometry x="762" y="177" width="36" height="21" as="geometry" />
        </mxCell>
        <mxCell id="Uq6EE7pWzw_fuwq8VIU6-24" value="1,n" style="text;html=1;strokeColor=none;fillColor=none;align=center;verticalAlign=middle;whiteSpace=wrap;rounded=0;" vertex="1" parent="zbq84CaO1FpFERPsgIWV-2">
          <mxGeometry x="934" y="177" width="36" height="21" as="geometry" />
        </mxCell>
        <mxCell id="Uq6EE7pWzw_fuwq8VIU6-25" value="dispone" style="shape=rhombus;perimeter=rhombusPerimeter;whiteSpace=wrap;html=1;align=center;" vertex="1" parent="zbq84CaO1FpFERPsgIWV-2">
          <mxGeometry x="1141" y="293" width="120" height="60" as="geometry" />
        </mxCell>
        <mxCell id="Uq6EE7pWzw_fuwq8VIU6-26" value="" style="endArrow=none;html=1;rounded=0;" edge="1" parent="zbq84CaO1FpFERPsgIWV-2" source="zbq84CaO1FpFERPsgIWV-61" target="Uq6EE7pWzw_fuwq8VIU6-25">
          <mxGeometry relative="1" as="geometry">
            <mxPoint x="815" y="320" as="sourcePoint" />
            <mxPoint x="975" y="320" as="targetPoint" />
          </mxGeometry>
        </mxCell>
        <mxCell id="Uq6EE7pWzw_fuwq8VIU6-27" value="" style="endArrow=none;html=1;rounded=0;" edge="1" parent="zbq84CaO1FpFERPsgIWV-2" source="Uq6EE7pWzw_fuwq8VIU6-25" target="zbq84CaO1FpFERPsgIWV-99">
          <mxGeometry relative="1" as="geometry">
            <mxPoint x="1201" y="370.9999999999998" as="sourcePoint" />
            <mxPoint x="1130.5" y="320" as="targetPoint" />
          </mxGeometry>
        </mxCell>
        <mxCell id="Uq6EE7pWzw_fuwq8VIU6-31" value="1,n" style="text;html=1;strokeColor=none;fillColor=none;align=center;verticalAlign=middle;whiteSpace=wrap;rounded=0;" vertex="1" parent="zbq84CaO1FpFERPsgIWV-2">
          <mxGeometry x="1126" y="245" width="36" height="21" as="geometry" />
        </mxCell>
        <mxCell id="Uq6EE7pWzw_fuwq8VIU6-32" value="1,1" style="text;html=1;strokeColor=none;fillColor=none;align=center;verticalAlign=middle;whiteSpace=wrap;rounded=0;" vertex="1" parent="zbq84CaO1FpFERPsgIWV-2">
          <mxGeometry x="1200.5" y="398" width="36" height="21" as="geometry" />
        </mxCell>
        <mxCell id="Uq6EE7pWzw_fuwq8VIU6-33" value="1,n" style="text;html=1;strokeColor=none;fillColor=none;align=center;verticalAlign=middle;whiteSpace=wrap;rounded=0;" vertex="1" parent="zbq84CaO1FpFERPsgIWV-2">
          <mxGeometry x="1263" y="312.5" width="36" height="21" as="geometry" />
        </mxCell>
        <mxCell id="Uq6EE7pWzw_fuwq8VIU6-34" value="administra" style="shape=rhombus;perimeter=rhombusPerimeter;whiteSpace=wrap;html=1;align=center;" vertex="1" parent="zbq84CaO1FpFERPsgIWV-2">
          <mxGeometry x="947" y="498" width="120" height="60" as="geometry" />
        </mxCell>
        <mxCell id="Uq6EE7pWzw_fuwq8VIU6-35" value="" style="endArrow=none;html=1;rounded=0;" edge="1" parent="zbq84CaO1FpFERPsgIWV-2" source="Uq6EE7pWzw_fuwq8VIU6-34" target="zbq84CaO1FpFERPsgIWV-99">
          <mxGeometry relative="1" as="geometry">
            <mxPoint x="884" y="392" as="sourcePoint" />
            <mxPoint x="1044" y="392" as="targetPoint" />
          </mxGeometry>
        </mxCell>
        <mxCell id="Uq6EE7pWzw_fuwq8VIU6-36" value="" style="endArrow=none;html=1;rounded=0;" edge="1" parent="zbq84CaO1FpFERPsgIWV-2" source="zbq84CaO1FpFERPsgIWV-83" target="Uq6EE7pWzw_fuwq8VIU6-34">
          <mxGeometry relative="1" as="geometry">
            <mxPoint x="884" y="392" as="sourcePoint" />
            <mxPoint x="1044" y="392" as="targetPoint" />
          </mxGeometry>
        </mxCell>
        <mxCell id="Uq6EE7pWzw_fuwq8VIU6-37" value="1,n" style="text;html=1;strokeColor=none;fillColor=none;align=center;verticalAlign=middle;whiteSpace=wrap;rounded=0;" vertex="1" parent="zbq84CaO1FpFERPsgIWV-2">
          <mxGeometry x="1082" y="503" width="36" height="21" as="geometry" />
        </mxCell>
        <mxCell id="Uq6EE7pWzw_fuwq8VIU6-41" value="1,n" style="text;html=1;strokeColor=none;fillColor=none;align=center;verticalAlign=middle;whiteSpace=wrap;rounded=0;" vertex="1" parent="zbq84CaO1FpFERPsgIWV-2">
          <mxGeometry x="893" y="503" width="36" height="21" as="geometry" />
        </mxCell>
        <mxCell id="Uq6EE7pWzw_fuwq8VIU6-42" value="n,m" style="text;html=1;strokeColor=none;fillColor=none;align=center;verticalAlign=middle;whiteSpace=wrap;rounded=0;" vertex="1" parent="zbq84CaO1FpFERPsgIWV-2">
          <mxGeometry x="989" y="562" width="36" height="21" as="geometry" />
        </mxCell>
        <mxCell id="Uq6EE7pWzw_fuwq8VIU6-43" value="adhiere" style="shape=rhombus;perimeter=rhombusPerimeter;whiteSpace=wrap;html=1;align=center;" vertex="1" parent="zbq84CaO1FpFERPsgIWV-2">
          <mxGeometry x="576" y="498" width="120" height="60" as="geometry" />
        </mxCell>
        <mxCell id="Uq6EE7pWzw_fuwq8VIU6-44" value="" style="endArrow=none;html=1;rounded=0;" edge="1" parent="zbq84CaO1FpFERPsgIWV-2" source="Uq6EE7pWzw_fuwq8VIU6-43" target="zbq84CaO1FpFERPsgIWV-83">
          <mxGeometry relative="1" as="geometry">
            <mxPoint x="476" y="474" as="sourcePoint" />
            <mxPoint x="636" y="474" as="targetPoint" />
          </mxGeometry>
        </mxCell>
        <mxCell id="Uq6EE7pWzw_fuwq8VIU6-46" value="" style="strokeWidth=2;html=1;shape=mxgraph.flowchart.merge_or_storage;whiteSpace=wrap;" vertex="1" parent="zbq84CaO1FpFERPsgIWV-2">
          <mxGeometry x="261.75" y="325" width="60.5" height="36.5" as="geometry" />
        </mxCell>
        <mxCell id="Uq6EE7pWzw_fuwq8VIU6-47" value="" style="endArrow=none;html=1;rounded=0;" edge="1" parent="zbq84CaO1FpFERPsgIWV-2" source="zbq84CaO1FpFERPsgIWV-16" target="Uq6EE7pWzw_fuwq8VIU6-46">
          <mxGeometry relative="1" as="geometry">
            <mxPoint x="526" y="574" as="sourcePoint" />
            <mxPoint x="686" y="574" as="targetPoint" />
          </mxGeometry>
        </mxCell>
        <mxCell id="Uq6EE7pWzw_fuwq8VIU6-48" value="ESQUIADOR_EQUIPO" style="shape=table;startSize=30;container=1;collapsible=1;childLayout=tableLayout;fixedRows=1;rowLines=0;fontStyle=1;align=center;resizeLast=1;html=1;" vertex="1" parent="zbq84CaO1FpFERPsgIWV-2">
          <mxGeometry x="69" y="450" width="190" height="180" as="geometry" />
        </mxCell>
        <mxCell id="Uq6EE7pWzw_fuwq8VIU6-49" value="" style="shape=tableRow;horizontal=0;startSize=0;swimlaneHead=0;swimlaneBody=0;fillColor=none;collapsible=0;dropTarget=0;points=[[0,0.5],[1,0.5]];portConstraint=eastwest;top=0;left=0;right=0;bottom=1;" vertex="1" parent="Uq6EE7pWzw_fuwq8VIU6-48">
          <mxGeometry y="30" width="190" height="30" as="geometry" />
        </mxCell>
        <mxCell id="Uq6EE7pWzw_fuwq8VIU6-50" value="PK" style="shape=partialRectangle;connectable=0;fillColor=none;top=0;left=0;bottom=0;right=0;fontStyle=1;overflow=hidden;whiteSpace=wrap;html=1;" vertex="1" parent="Uq6EE7pWzw_fuwq8VIU6-49">
          <mxGeometry width="30" height="30" as="geometry">
            <mxRectangle width="30" height="30" as="alternateBounds" />
          </mxGeometry>
        </mxCell>
        <mxCell id="Uq6EE7pWzw_fuwq8VIU6-51" value="codigo_participacion" style="shape=partialRectangle;connectable=0;fillColor=none;top=0;left=0;bottom=0;right=0;align=left;spacingLeft=6;fontStyle=5;overflow=hidden;whiteSpace=wrap;html=1;" vertex="1" parent="Uq6EE7pWzw_fuwq8VIU6-49">
          <mxGeometry x="30" width="160" height="30" as="geometry">
            <mxRectangle width="160" height="30" as="alternateBounds" />
          </mxGeometry>
        </mxCell>
        <mxCell id="Uq6EE7pWzw_fuwq8VIU6-52" value="" style="shape=tableRow;horizontal=0;startSize=0;swimlaneHead=0;swimlaneBody=0;fillColor=none;collapsible=0;dropTarget=0;points=[[0,0.5],[1,0.5]];portConstraint=eastwest;top=0;left=0;right=0;bottom=0;" vertex="1" parent="Uq6EE7pWzw_fuwq8VIU6-48">
          <mxGeometry y="60" width="190" height="30" as="geometry" />
        </mxCell>
        <mxCell id="Uq6EE7pWzw_fuwq8VIU6-53" value="" style="shape=partialRectangle;connectable=0;fillColor=none;top=0;left=0;bottom=0;right=0;editable=1;overflow=hidden;whiteSpace=wrap;html=1;" vertex="1" parent="Uq6EE7pWzw_fuwq8VIU6-52">
          <mxGeometry width="30" height="30" as="geometry">
            <mxRectangle width="30" height="30" as="alternateBounds" />
          </mxGeometry>
        </mxCell>
        <mxCell id="Uq6EE7pWzw_fuwq8VIU6-54" value="nombre_equipo" style="shape=partialRectangle;connectable=0;fillColor=none;top=0;left=0;bottom=0;right=0;align=left;spacingLeft=6;overflow=hidden;whiteSpace=wrap;html=1;" vertex="1" parent="Uq6EE7pWzw_fuwq8VIU6-52">
          <mxGeometry x="30" width="160" height="30" as="geometry">
            <mxRectangle width="160" height="30" as="alternateBounds" />
          </mxGeometry>
        </mxCell>
        <mxCell id="Uq6EE7pWzw_fuwq8VIU6-55" value="" style="shape=tableRow;horizontal=0;startSize=0;swimlaneHead=0;swimlaneBody=0;fillColor=none;collapsible=0;dropTarget=0;points=[[0,0.5],[1,0.5]];portConstraint=eastwest;top=0;left=0;right=0;bottom=0;" vertex="1" parent="Uq6EE7pWzw_fuwq8VIU6-48">
          <mxGeometry y="90" width="190" height="30" as="geometry" />
        </mxCell>
        <mxCell id="Uq6EE7pWzw_fuwq8VIU6-56" value="" style="shape=partialRectangle;connectable=0;fillColor=none;top=0;left=0;bottom=0;right=0;editable=1;overflow=hidden;whiteSpace=wrap;html=1;" vertex="1" parent="Uq6EE7pWzw_fuwq8VIU6-55">
          <mxGeometry width="30" height="30" as="geometry">
            <mxRectangle width="30" height="30" as="alternateBounds" />
          </mxGeometry>
        </mxCell>
        <mxCell id="Uq6EE7pWzw_fuwq8VIU6-57" value="entrenador" style="shape=partialRectangle;connectable=0;fillColor=none;top=0;left=0;bottom=0;right=0;align=left;spacingLeft=6;overflow=hidden;whiteSpace=wrap;html=1;" vertex="1" parent="Uq6EE7pWzw_fuwq8VIU6-55">
          <mxGeometry x="30" width="160" height="30" as="geometry">
            <mxRectangle width="160" height="30" as="alternateBounds" />
          </mxGeometry>
        </mxCell>
        <mxCell id="Uq6EE7pWzw_fuwq8VIU6-58" value="" style="shape=tableRow;horizontal=0;startSize=0;swimlaneHead=0;swimlaneBody=0;fillColor=none;collapsible=0;dropTarget=0;points=[[0,0.5],[1,0.5]];portConstraint=eastwest;top=0;left=0;right=0;bottom=0;" vertex="1" parent="Uq6EE7pWzw_fuwq8VIU6-48">
          <mxGeometry y="120" width="190" height="30" as="geometry" />
        </mxCell>
        <mxCell id="Uq6EE7pWzw_fuwq8VIU6-59" value="" style="shape=partialRectangle;connectable=0;fillColor=none;top=0;left=0;bottom=0;right=0;editable=1;overflow=hidden;whiteSpace=wrap;html=1;" vertex="1" parent="Uq6EE7pWzw_fuwq8VIU6-58">
          <mxGeometry width="30" height="30" as="geometry">
            <mxRectangle width="30" height="30" as="alternateBounds" />
          </mxGeometry>
        </mxCell>
        <mxCell id="Uq6EE7pWzw_fuwq8VIU6-60" value="integrantes" style="shape=partialRectangle;connectable=0;fillColor=none;top=0;left=0;bottom=0;right=0;align=left;spacingLeft=6;overflow=hidden;whiteSpace=wrap;html=1;" vertex="1" parent="Uq6EE7pWzw_fuwq8VIU6-58">
          <mxGeometry x="30" width="160" height="30" as="geometry">
            <mxRectangle width="160" height="30" as="alternateBounds" />
          </mxGeometry>
        </mxCell>
        <mxCell id="Uq6EE7pWzw_fuwq8VIU6-61" value="" style="shape=tableRow;horizontal=0;startSize=0;swimlaneHead=0;swimlaneBody=0;fillColor=none;collapsible=0;dropTarget=0;points=[[0,0.5],[1,0.5]];portConstraint=eastwest;top=0;left=0;right=0;bottom=0;" vertex="1" parent="Uq6EE7pWzw_fuwq8VIU6-48">
          <mxGeometry y="150" width="190" height="30" as="geometry" />
        </mxCell>
        <mxCell id="Uq6EE7pWzw_fuwq8VIU6-62" value="" style="shape=partialRectangle;connectable=0;fillColor=none;top=0;left=0;bottom=0;right=0;editable=1;overflow=hidden;whiteSpace=wrap;html=1;" vertex="1" parent="Uq6EE7pWzw_fuwq8VIU6-61">
          <mxGeometry width="30" height="30" as="geometry">
            <mxRectangle width="30" height="30" as="alternateBounds" />
          </mxGeometry>
        </mxCell>
        <mxCell id="Uq6EE7pWzw_fuwq8VIU6-63" value="numero_integrantes" style="shape=partialRectangle;connectable=0;fillColor=none;top=0;left=0;bottom=0;right=0;align=left;spacingLeft=6;overflow=hidden;whiteSpace=wrap;html=1;" vertex="1" parent="Uq6EE7pWzw_fuwq8VIU6-61">
          <mxGeometry x="30" width="160" height="30" as="geometry">
            <mxRectangle width="160" height="30" as="alternateBounds" />
          </mxGeometry>
        </mxCell>
        <mxCell id="Uq6EE7pWzw_fuwq8VIU6-64" value="1,1" style="text;html=1;strokeColor=none;fillColor=none;align=center;verticalAlign=middle;whiteSpace=wrap;rounded=0;" vertex="1" parent="zbq84CaO1FpFERPsgIWV-2">
          <mxGeometry x="295" y="277" width="36" height="21" as="geometry" />
        </mxCell>
        <mxCell id="Uq6EE7pWzw_fuwq8VIU6-65" value="" style="endArrow=none;html=1;rounded=0;" edge="1" parent="zbq84CaO1FpFERPsgIWV-2" source="zbq84CaO1FpFERPsgIWV-42" target="Uq6EE7pWzw_fuwq8VIU6-43">
          <mxGeometry relative="1" as="geometry">
            <mxPoint x="565" y="428" as="sourcePoint" />
            <mxPoint x="725" y="428" as="targetPoint" />
          </mxGeometry>
        </mxCell>
        <mxCell id="Uq6EE7pWzw_fuwq8VIU6-66" value="" style="endArrow=none;html=1;rounded=0;" edge="1" parent="zbq84CaO1FpFERPsgIWV-2" source="Uq6EE7pWzw_fuwq8VIU6-46" target="Uq6EE7pWzw_fuwq8VIU6-48">
          <mxGeometry relative="1" as="geometry">
            <mxPoint x="565" y="428" as="sourcePoint" />
            <mxPoint x="725" y="428" as="targetPoint" />
          </mxGeometry>
        </mxCell>
        <mxCell id="Uq6EE7pWzw_fuwq8VIU6-67" value="" style="endArrow=none;html=1;rounded=0;" edge="1" parent="zbq84CaO1FpFERPsgIWV-2" source="Uq6EE7pWzw_fuwq8VIU6-46" target="zbq84CaO1FpFERPsgIWV-42">
          <mxGeometry relative="1" as="geometry">
            <mxPoint x="565" y="428" as="sourcePoint" />
            <mxPoint x="725" y="428" as="targetPoint" />
          </mxGeometry>
        </mxCell>
        <mxCell id="Uq6EE7pWzw_fuwq8VIU6-68" value="1,1" style="text;html=1;strokeColor=none;fillColor=none;align=center;verticalAlign=middle;whiteSpace=wrap;rounded=0;" vertex="1" parent="zbq84CaO1FpFERPsgIWV-2">
          <mxGeometry x="708" y="505" width="36" height="21" as="geometry" />
        </mxCell>
        <mxCell id="Uq6EE7pWzw_fuwq8VIU6-69" value="1,n" style="text;html=1;strokeColor=none;fillColor=none;align=center;verticalAlign=middle;whiteSpace=wrap;rounded=0;" vertex="1" parent="zbq84CaO1FpFERPsgIWV-2">
          <mxGeometry x="528" y="503" width="36" height="21" as="geometry" />
        </mxCell>
        <mxCell id="Uq6EE7pWzw_fuwq8VIU6-70" value="n,1" style="text;html=1;strokeColor=none;fillColor=none;align=center;verticalAlign=middle;whiteSpace=wrap;rounded=0;" vertex="1" parent="zbq84CaO1FpFERPsgIWV-2">
          <mxGeometry x="618" y="562" width="36" height="21" as="geometry" />
        </mxCell>
        <mxCell id="Uq6EE7pWzw_fuwq8VIU6-71" value="0,1" style="text;html=1;strokeColor=none;fillColor=none;align=center;verticalAlign=middle;whiteSpace=wrap;rounded=0;" vertex="1" parent="zbq84CaO1FpFERPsgIWV-2">
          <mxGeometry x="376" y="423" width="36" height="21" as="geometry" />
        </mxCell>
        <mxCell id="Uq6EE7pWzw_fuwq8VIU6-72" value="0,1" style="text;html=1;strokeColor=none;fillColor=none;align=center;verticalAlign=middle;whiteSpace=wrap;rounded=0;" vertex="1" parent="zbq84CaO1FpFERPsgIWV-2">
          <mxGeometry x="188" y="423" width="36" height="21" as="geometry" />
        </mxCell>
      </root>
    </mxGraphModel>
  </diagram>
</mxfile>
